<?xml version="1.0" encoding="UTF-8"?>
<svg version="1.1" xmlns="http://www.w3.org/2000/svg" width="150" height="150">
<path d="M0 0 C49.5 0 99 0 150 0 C150 49.5 150 99 150 150 C100.5 150 51 150 0 150 C0 100.5 0 51 0 0 Z " fill="#0F151F" transform="translate(0,0)"/>
<path d="M0 0 C12.54 0 25.08 0 38 0 C38 16.5 38 33 38 50 C25.46 50 12.92 50 0 50 C0 33.5 0 17 0 0 Z " fill="#00E763" transform="translate(80,50)"/>
<path d="M0 0 C3.96 0 7.92 0 12 0 C12 6.27 12 12.54 12 19 C16.29 19 20.58 19 25 19 C25 12.73 25 6.46 25 0 C28.96 0 32.92 0 37 0 C37 16.5 37 33 37 50 C33.04 50 29.08 50 25 50 C25 43.73 25 37.46 25 31 C20.71 31 16.42 31 12 31 C12 37.27 12 43.54 12 50 C8.04 50 4.08 50 0 50 C0 33.5 0 17 0 0 Z " fill="#FEFEFE" transform="translate(37,50)"/>
<path d="M0 0 C0.33 0 0.66 0 1 0 C1 15.84 1 31.68 1 48 C-13.52 48 -28.04 48 -43 48 C-40.0452195 46.03014633 -37.87437413 45.29373248 -34.5 44.3125 C-21.52239593 40.04932571 -12.19387984 32.30465108 -5.6875 20.3125 C-2.58497883 13.76085447 -1.20225635 7.12916921 0 0 Z " fill="#FAFAFA" transform="translate(149,102)"/>
<path d="M0 0 C1.96985367 2.9547805 2.70626752 5.12562587 3.6875 8.5 C8.15325859 22.09429453 16.30725353 31.4006996 29 37.875 C34.32364742 40.40979525 39.18353665 42.09744534 45 43 C45 43.33 45 43.66 45 44 C30.15 44 15.3 44 0 44 C0 29.48 0 14.96 0 0 Z " fill="#FBFBFC" transform="translate(0,106)"/>
<path d="M0 0 C14.52 0 29.04 0 44 0 C44 14.85 44 29.7 44 45 C42.44670458 41.89340915 41.58103529 39.64586967 40.75 36.375 C37.13943237 24.09907005 29.0471011 14.20585576 18.19921875 7.609375 C12.38471683 4.68437526 6.23223681 2.82509499 0 1 C0 0.67 0 0.34 0 0 Z " fill="#FBFBFC" transform="translate(106,0)"/>
<path d="M0 0 C14.85 0 29.7 0 45 0 C41.89340915 1.55329542 39.64586967 2.41896471 36.375 3.25 C22.48254331 7.33601667 12.91543055 16.6037229 6 29 C3.30850954 34.07712974 2.08034273 39.39492772 1 45 C0.67 45 0.34 45 0 45 C0 30.15 0 15.3 0 0 Z " fill="#FCFCFC" transform="translate(0,0)"/>
</svg>
