<?xml version="1.0" encoding="UTF-8"?>
<svg version="1.1" xmlns="http://www.w3.org/2000/svg" width="620" height="620">
<path d="M0 0 C2.54378557 -0.00571711 5.08756859 -0.0126865 7.63134766 -0.02079773 C13.77107906 -0.0367579 19.91067145 -0.03885984 26.05041716 -0.03358483 C31.05114153 -0.02951085 36.05183591 -0.03102451 41.0525589 -0.03633308 C41.76964018 -0.03708151 42.48672147 -0.03782993 43.22553249 -0.03860103 C44.683211 -0.04013282 46.1408895 -0.04167117 47.59856799 -0.043216 C61.20901056 -0.05688271 74.81939535 -0.05154489 88.42983654 -0.04003078 C100.82093413 -0.03010712 113.2118822 -0.0430345 125.60295674 -0.06696498 C138.39436809 -0.09147824 151.18571016 -0.10093389 163.97714448 -0.09431225 C171.13120769 -0.09084666 178.2851562 -0.09287328 185.43920135 -0.11056328 C192.17330876 -0.12701153 198.90708886 -0.12191563 205.64120483 -0.10325813 C208.09148357 -0.09961245 210.54178394 -0.10256082 212.99204254 -0.11314392 C270.45215102 -0.34209033 320.36940652 21.27180316 360.96191406 61.40405273 C374.17481989 74.74541737 384.4448198 89.7352841 392.96191406 106.40405273 C393.55166016 107.54680664 393.55166016 107.54680664 394.15332031 108.71264648 C400.37183024 120.88286559 405.02880205 133.32516716 408.96191406 146.40405273 C409.28933594 147.4778418 409.61675781 148.55163086 409.95410156 149.65795898 C414.99107682 167.91050334 415.40459678 186.64669153 415.3659668 205.44213867 C415.37168391 207.98592425 415.37865329 210.52970726 415.38676453 213.07348633 C415.4027247 219.21321773 415.40482663 225.35281012 415.39955162 231.49255583 C415.39547765 236.4932802 415.3969913 241.49397458 415.40229988 246.49469757 C415.4030483 247.21177885 415.40379673 247.92886014 415.40456783 248.66767116 C415.40609962 250.12534967 415.40763797 251.58302817 415.40918279 253.04070666 C415.4228495 266.65114924 415.41751169 280.26153402 415.40599758 293.87197521 C415.39607392 306.2630728 415.4090013 318.65402087 415.43293177 331.04509541 C415.45744504 343.83650676 415.46690068 356.62784883 415.46027905 369.41928315 C415.45681346 376.57334636 415.45884008 383.72729487 415.47653008 390.88134003 C415.49297832 397.61544743 415.48788242 404.34922753 415.46922493 411.08334351 C415.46557924 413.53362225 415.46852762 415.98392262 415.47911072 418.43418121 C415.70805712 475.89428969 394.09416364 525.81154519 353.96191406 566.40405273 C340.62054942 579.61695857 325.6306827 589.88695847 308.96191406 598.40405273 C307.81916016 598.99379883 307.81916016 598.99379883 306.65332031 599.59545898 C294.4831012 605.81396892 282.04079964 610.47094072 268.96191406 614.40405273 C267.888125 614.73147461 266.81433594 615.05889648 265.70800781 615.39624023 C247.45546346 620.43321549 228.71927527 620.84673545 209.92382812 620.80810547 C207.38004255 620.81382258 204.83625954 620.82079196 202.29248047 620.8289032 C196.15274907 620.84486337 190.01315667 620.8469653 183.87341097 620.84169029 C178.87268659 620.83761632 173.87199221 620.83912998 168.87126923 620.84443855 C167.7956473 620.84556119 167.7956473 620.84556119 166.69829564 620.8467065 C165.24061713 620.84823829 163.78293863 620.84977664 162.32526013 620.85132147 C148.71481756 620.86498818 135.10443278 620.85965036 121.49399158 620.84813625 C109.102894 620.83821259 96.71194593 620.85113997 84.32087138 620.87507045 C71.52946004 620.89958371 58.73811796 620.90903936 45.94668365 620.90241772 C38.79262043 620.89895213 31.63867193 620.90097875 24.48462677 620.91866875 C17.75051937 620.935117 11.01673927 620.93002109 4.28262329 620.9113636 C1.83234455 620.90771792 -0.61795582 620.91066629 -3.06821442 620.92124939 C-60.52832289 621.15019579 -110.4455784 599.53630231 -151.03808594 559.40405273 C-164.25099177 546.0626881 -174.52099168 531.07282137 -183.03808594 514.40405273 C-183.62783203 513.26129883 -183.62783203 513.26129883 -184.22949219 512.09545898 C-190.44800212 499.92523988 -195.10497393 487.48293831 -199.03808594 474.40405273 C-199.52921875 472.79336914 -199.52921875 472.79336914 -200.03027344 471.15014648 C-205.06724869 452.89760213 -205.48076865 434.16141394 -205.44213867 415.3659668 C-205.44785578 412.82218122 -205.45482517 410.27839821 -205.4629364 407.73461914 C-205.47889657 401.59488774 -205.48099851 395.45529534 -205.4757235 389.31554964 C-205.47164952 384.31482527 -205.47316318 379.31413089 -205.47847176 374.3134079 C-205.47922018 373.59632661 -205.4799686 372.87924533 -205.4807397 372.14043431 C-205.48227149 370.6827558 -205.48380984 369.2250773 -205.48535467 367.7673988 C-205.49902138 354.15695623 -205.49368356 340.54657145 -205.48216946 326.93613026 C-205.47224579 314.54503267 -205.48517317 302.1540846 -205.50910365 289.76301005 C-205.53361691 276.97159871 -205.54307256 264.18025663 -205.53645092 251.38882232 C-205.53298533 244.23475911 -205.53501196 237.0808106 -205.55270195 229.92676544 C-205.5691502 223.19265804 -205.5640543 216.45887794 -205.5453968 209.72476196 C-205.54175112 207.27448322 -205.54469949 204.82418285 -205.55528259 202.37392426 C-205.784229 144.91381578 -184.17033551 94.99656027 -144.03808594 54.40405273 C-130.6967213 41.1911469 -115.70685457 30.921147 -99.03808594 22.40405273 C-98.27625 22.01088867 -97.51441406 21.61772461 -96.72949219 21.21264648 C-84.55927308 14.99413655 -72.11697151 10.33716475 -59.03808594 6.40405273 C-57.96429688 6.07663086 -56.89050781 5.74920898 -55.78417969 5.41186523 C-37.53163533 0.37488998 -18.79544714 -0.03862998 0 0 Z " fill="#0E141E" transform="translate(205.0380859375,-0.404052734375)"/>
<path d="M0 0 C50.82 0 101.64 0 154 0 C155.56441633 3.12883266 155.14054258 6.46108642 155.13371277 9.89575195 C155.13597833 10.72092725 155.13824388 11.54610254 155.14057809 12.39628315 C155.14693689 15.17696319 155.14608753 17.95759472 155.14526367 20.73828125 C155.14825396 22.72545434 155.15165618 24.71262685 155.15544128 26.69979858 C155.16429789 32.10873594 155.16662007 37.5176575 155.16725707 42.92660141 C155.16820467 47.43490041 155.17188116 51.94319569 155.17542917 56.45149326 C155.18357972 67.08257293 155.18601282 77.71364413 155.18530273 88.34472656 C155.18470149 99.32945297 155.19526124 110.31413034 155.2110464 121.29884434 C155.22409836 130.71540083 155.22948763 140.13194126 155.22884732 149.54850674 C155.22859168 155.17905334 155.23147919 160.80955636 155.24202538 166.44009399 C155.25166724 171.73251682 155.2518126 177.02485407 155.24450874 182.31727982 C155.24345807 184.26441192 155.24585414 186.21154924 155.2518692 188.15867233 C155.25952418 190.80730004 155.25498787 193.45562735 155.24723816 196.10424805 C155.25238172 196.88302968 155.25752529 197.66181131 155.26282471 198.46419239 C155.2282714 203.7717286 155.2282714 203.7717286 153 206 C150.38285732 206.24888897 150.38285732 206.24888897 146.99571228 206.24723816 C145.7154567 206.25143265 144.43520111 206.25562714 143.1161499 206.25994873 C141.6893303 206.25446485 140.26251146 206.24878185 138.83569336 206.24291992 C137.33950213 206.24399235 135.8433113 206.24593044 134.34712219 206.24867249 C130.27701453 206.25352987 126.2070161 206.24585438 122.13692164 206.23571944 C117.88527339 206.22695485 113.63362871 206.22869607 109.38197327 206.2290802 C102.24217901 206.22814292 95.10242718 206.21944989 87.96264648 206.20581055 C79.69653599 206.19007835 71.43047197 206.18481261 63.16434759 206.1855461 C55.22578021 206.1861555 47.28722805 206.18105852 39.34866524 206.17275429 C35.96390222 206.16921492 32.57914458 206.16739011 29.19437981 206.16686058 C25.21274921 206.16585932 21.23115796 206.15978057 17.24954033 206.14969444 C15.78414653 206.14676265 14.31874821 206.14554544 12.85335159 206.14612198 C10.86133152 206.14660932 8.86931311 206.1403635 6.87730408 206.13371277 C5.75992324 206.13203692 4.6425424 206.13036108 3.49130154 206.12863445 C1 206 1 206 0 205 C-0.0978152 202.35714747 -0.12994267 199.74044247 -0.12025452 197.09715271 C-0.12110894 196.25917005 -0.12196337 195.42118739 -0.12284368 194.55781132 C-0.12450106 191.72789141 -0.11897293 188.89802976 -0.11352539 186.06811523 C-0.11324355 184.048289 -0.11340119 182.02846265 -0.1139679 180.00863647 C-0.11425599 174.50679614 -0.10835741 169.00497741 -0.10139394 163.50314212 C-0.0951623 157.76023895 -0.09455675 152.01733535 -0.09336853 146.27442932 C-0.09025465 135.39113107 -0.08204051 124.50784281 -0.07201904 113.62454897 C-0.05877492 98.92380481 -0.05335845 84.22305793 -0.04751682 69.5223093 C-0.03810065 46.34819871 -0.01818211 23.17410921 0 0 Z " fill="#00E963" transform="translate(332,207)"/>
<path d="M0 0 C7.24486551 -0.02526739 14.48971974 -0.0428318 21.73461914 -0.05493164 C24.20142033 -0.05997356 26.66821852 -0.06680691 29.13500977 -0.07543945 C32.67204529 -0.08751125 36.20904145 -0.09322956 39.74609375 -0.09765625 C40.85649521 -0.10281754 41.96689667 -0.10797882 43.11094666 -0.11329651 C44.64242088 -0.11340981 44.64242088 -0.11340981 46.20483398 -0.11352539 C47.10862289 -0.115746 48.0124118 -0.11796661 48.94358826 -0.12025452 C51 0 51 0 52 1 C52.09494733 3.37300869 52.12559319 5.71678703 52.11352539 8.09008789 C52.11367142 8.83150528 52.11381744 9.57292267 52.1139679 10.33680725 C52.11326865 12.79878621 52.10547574 15.26069043 52.09765625 17.72265625 C52.09579211 19.42516539 52.09436819 21.12767507 52.09336853 22.83018494 C52.08954302 27.31993073 52.07971247 31.80964438 52.06866455 36.29937744 C52.05665668 41.68163641 52.05204835 47.0639061 52.04621124 52.44617462 C52.03650072 60.63080546 52.01734441 68.81536572 52 77 C68.5 77 85 77 102 77 C101.98839844 71.52535156 101.97679687 66.05070312 101.96484375 60.41015625 C101.95973694 56.9511707 101.95492317 53.49218976 101.95117188 50.03320312 C101.94518363 44.53750651 101.93808381 39.04182649 101.92456055 33.54614258 C101.913731 29.11766312 101.90772302 24.68920144 101.90512276 20.26070976 C101.90326863 18.56734372 101.89964825 16.87397871 101.89426994 15.18062019 C101.8870586 12.81708768 101.8860091 10.45362955 101.88647461 8.09008789 C101.88287933 7.38302704 101.87928406 6.67596619 101.87557983 5.94747925 C101.88594784 1.11405216 101.88594784 1.11405216 103 0 C104.59610982 -0.09333705 106.19633428 -0.11745372 107.79516602 -0.11352539 C108.81614883 -0.11344986 109.83713165 -0.11337433 110.88905334 -0.11329651 C111.9994548 -0.10813522 113.10985626 -0.10297394 114.25390625 -0.09765625 C115.94978127 -0.09553383 115.94978127 -0.09553383 117.67991638 -0.09336853 C121.30747065 -0.08775019 124.93496424 -0.07519458 128.5625 -0.0625 C131.01497307 -0.05748736 133.4674471 -0.05292405 135.91992188 -0.04882812 C141.94663545 -0.0377748 147.97331339 -0.02101884 154 0 C154.02332564 26.711408 154.04097752 53.42281449 154.05181217 80.13423061 C154.05697584 92.53586097 154.06401989 104.93748502 154.07543945 117.33911133 C154.08538412 128.14412616 154.09185291 138.94913642 154.09408849 149.7541557 C154.09539597 155.4791448 154.09848415 161.20412083 154.10573006 166.92910576 C154.11248685 172.31094088 154.11461766 177.69275745 154.11310768 183.07459641 C154.11338416 185.05601032 154.11539129 187.03742481 154.11920547 189.01883507 C154.12413741 191.71163087 154.12300015 194.40435546 154.12025452 197.09715271 C154.12462378 198.28925005 154.12462378 198.28925005 154.12908131 199.50543016 C154.11412121 204.88587879 154.11412121 204.88587879 153 206 C151.47613769 206.10358779 149.94753014 206.13851138 148.42016602 206.14526367 C147.44568008 206.15164352 146.47119415 206.15802338 145.46717834 206.16459656 C143.87660866 206.16626579 143.87660866 206.16626579 142.25390625 206.16796875 C141.17245834 206.17129715 140.09101044 206.17462555 138.97679138 206.17805481 C136.68432034 206.18312877 134.39184188 206.18546299 132.09936523 206.18530273 C128.58109433 206.18748845 125.06313719 206.20563728 121.54492188 206.22460938 C119.32291775 206.22754328 117.10091212 206.22952809 114.87890625 206.23046875 C113.82055069 206.23765427 112.76219513 206.24483978 111.67176819 206.25224304 C110.6941301 206.24916641 109.716492 206.24608978 108.70922852 206.24291992 C107.41469505 206.24505745 107.41469505 206.24505745 106.0940094 206.24723816 C104 206 104 206 102 204 C101.81234227 201.59073766 101.74799019 199.29751603 101.77294922 196.88818359 C101.77265717 196.15637375 101.77236511 195.4245639 101.77206421 194.670578 C101.77345999 192.24641146 101.7890326 189.82255049 101.8046875 187.3984375 C101.80841675 185.71977913 101.81126414 184.04111859 101.81326294 182.36245728 C101.82090631 177.94008393 101.84056078 173.51784155 101.8626709 169.09552002 C101.88670731 163.79168403 101.89590696 158.48780429 101.90757751 153.18392944 C101.92698484 145.12252849 101.96530237 137.061415 102 129 C85.5 129 69 129 52 129 C52.02320313 134.39085937 52.04640625 139.78171875 52.0703125 145.3359375 C52.08052779 148.74479646 52.09015545 152.15363663 52.09765625 155.5625 C52.10962636 160.97692773 52.12380886 166.39128803 52.15087891 171.80566406 C52.17255993 176.16931524 52.18455858 180.53289413 52.18975449 184.896595 C52.19345879 186.56402347 52.20069207 188.23144785 52.21146011 189.89884567 C52.2259122 192.22871295 52.22798061 194.55827894 52.22705078 196.88818359 C52.23424133 197.58229843 52.24143188 198.27641327 52.24884033 198.99156189 C52.22810432 203.77189568 52.22810432 203.77189568 50 206 C47.9059906 206.24723816 47.9059906 206.24723816 45.29077148 206.24291992 C44.31313339 206.24599655 43.3354953 206.24907318 42.32823181 206.25224304 C41.26987625 206.24505753 40.21152069 206.23787201 39.12109375 206.23046875 C38.03868912 206.23001053 36.95628448 206.22955231 35.84107971 206.2290802 C33.55037339 206.22605559 31.25966916 206.21816309 28.96899414 206.20581055 C25.44865697 206.18755785 21.92858266 206.18530078 18.40820312 206.18554688 C16.18749771 206.18063175 13.96679409 206.17480346 11.74609375 206.16796875 C10.68571396 206.16685593 9.62533417 206.1657431 8.53282166 206.16459656 C7.55833572 206.15821671 6.58384979 206.15183685 5.57983398 206.14526367 C4.71760727 206.14145187 3.85538055 206.13764008 2.96702576 206.13371277 C1 206 1 206 0 205 C-0.0978152 202.35714747 -0.12994267 199.74044247 -0.12025452 197.09715271 C-0.12110894 196.25917005 -0.12196337 195.42118739 -0.12284368 194.55781132 C-0.12450106 191.72789141 -0.11897293 188.89802976 -0.11352539 186.06811523 C-0.11324355 184.048289 -0.11340119 182.02846265 -0.1139679 180.00863647 C-0.11425599 174.50679614 -0.10835741 169.00497741 -0.10139394 163.50314212 C-0.0951623 157.76023895 -0.09455675 152.01733535 -0.09336853 146.27442932 C-0.09025465 135.39113107 -0.08204051 124.50784281 -0.07201904 113.62454897 C-0.06085965 101.23782204 -0.05534789 88.85109464 -0.05032361 76.46436393 C-0.03985794 50.97623707 -0.02225741 25.4881191 0 0 Z " fill="#FEFEFE" transform="translate(152,207)"/>
</svg>
